# xmcd
#
# Track frame offsets:
#	150
#	13177
#	26920
#	39498
#	56594
#	66764
#	86143
#	103524
#	117567
#	136575
#	152898
#	168264
#	186232
#	198028
#	210535
#	227369
#	244491
#
# Disc length: 3393 seconds
# Revision: 3
# Processed by: cddbd v1.5.2PL0 Copyright (c) Steve Scherf et al.
# Submitted via: dBpowerAMP V12.0
#
DISCID=e60d3f11
DTITLE=Various Artist - The Best of the Johnny Cash TV Show (1969-71)
DYEAR=1969
DGENRE=Country
TTITLE0=Johnny Cash - The Johnny Cash Show Open: I Walk the Line
TTITLE1=Johnny Cash - Flesh and Blood
TTITLE2=Tammy Wynette - Stand by Your Man
TTITLE3=George Jones - Medley: She Thinks I Still Care: Love Bug: the Race Is On
TTITLE4=Johnny Cash and Lynn Anderson - I've Been Everywhere
TTITLE5=Brenda Lee - Johnny One Time
TTITLE6=Ray Charles - Ring of Fire
TTITLE7=Linda Ronstadt and Johnny Cash - I Will Never Marry
TTITLE8=Derek and the Dominos - It's Too Late
TTITLE9=Johnny Cash - A Boy Named Sue
TTITLE10=Kris Kristofferson - Loving Her Was Easier (Than Anything I'll Ever Do Again)
TTITLE11=Roy Orbison - Medley: Only the Lonely: Oh, Pretty Woman
TTITLE12=Johnny Cash With the Carter Sisters and the Statler Brothers - Belshazzar
TTITLE13=Waylon Jennings - Brown Eyed Handsome Man
TTITLE14=Girl from the North Country - Girl from the North Country
TTITLE15=James Taylor - Fire and Rain
TTITLE16=Johnny Cash - Closing Monologue I Walk the Line (Reprise)
EXTD=
EXTT0=
EXTT1=
EXTT2=
EXTT3=
EXTT4=
EXTT5=
EXTT6=
EXTT7=
EXTT8=
EXTT9=
EXTT10=
EXTT11=
EXTT12=
EXTT13=
EXTT14=
EXTT15=
EXTT16=
PLAYORDER=
